# xmcd CD database file
#
# Track frame offsets:
#	150
#	15701
#	31353
#	41782
#	56535
#	69601
#	89377
#	106654
#	126033
#	147136
#	160829
#	179971
#	195312
#	211674
#	229474
#	244642
#
# Disc length: 3476 seconds
#
# Revision: 0
# Processed by: cddbd v1.5.2PL0 Copyright (c) Steve Scherf et al.
# Submitted via: CDex 1.70beta2
#
DISCID=db0d9210
DTITLE=Compile - Merengues para recordar vol.2
DYEAR=2006
DGENRE=Merengue
TTITLE0=Musiquito - El tulipan
TTITLE1=Cheche Abreu - Canto a Santo Domingo
TTITLE2=AntonioMorel y su orquesta - Skokian
TTITLE3=Palenque - Matilda
TTITLE4=Vinicio Franco - Salve nueva
TTITLE5=Ricardo José - Queriendote y adorandote
TTITLE6=El Profeta - Son mi gente
TTITLE7=Cheche Abreu - El very well
TTITLE8=Peter Cruz - Raquel
TTITLE9=Ricardo José - La toita
TTITLE10=Tomas Barrera - Ponle un se vende
TTITLE11=Musiquito - El dengue
TTITLE12=Tony Seval - Orfelina
TTITLE13=Ricardo José - El preferido
TTITLE14=Carlos Manuel "El Zafiro" - El Picor
TTITLE15=Tomas Barrera - Tumba y mocha
EXTD=YEAR: 2006
EXTT0=
EXTT1=
EXTT2=
EXTT3=
EXTT4=
EXTT5=
EXTT6=
EXTT7=
EXTT8=
EXTT9=
EXTT10=
EXTT11=
EXTT12=
EXTT13=
EXTT14=
EXTT15=
PLAYORDER=
